<?xml version="1.0" encoding="UTF-8" standalone="no"?>
<!-- Created with Inkscape (http://www.inkscape.org/) -->

<svg
   width="79.748634mm"
   height="80.369331mm"
   viewBox="0 0 79.748635 80.369331"
   version="1.1"
   id="svg1413"
   inkscape:version="1.2.2 (b0a8486541, 2022-12-01)"
   sodipodi:docname="echo42-logo.svg"
   xmlns:inkscape="http://www.inkscape.org/namespaces/inkscape"
   xmlns:sodipodi="http://sodipodi.sourceforge.net/DTD/sodipodi-0.dtd"
   xmlns="http://www.w3.org/2000/svg"
   xmlns:svg="http://www.w3.org/2000/svg">
  <sodipodi:namedview
     id="namedview1415"
     pagecolor="#ffffff"
     bordercolor="#000000"
     borderopacity="0.25"
     inkscape:showpageshadow="2"
     inkscape:pageopacity="0.0"
     inkscape:pagecheckerboard="0"
     inkscape:deskcolor="#d1d1d1"
     inkscape:document-units="mm"
     showgrid="false"
     inkscape:zoom="1"
     inkscape:cx="63.5"
     inkscape:cy="241.5"
     inkscape:window-width="1920"
     inkscape:window-height="1022"
     inkscape:window-x="1920"
     inkscape:window-y="28"
     inkscape:window-maximized="1"
     inkscape:current-layer="layer1" />
  <defs
     id="defs1410" />
  <g
     inkscape:label="Calque 1"
     inkscape:groupmode="layer"
     id="layer1"
     transform="translate(-51.537417,-40.691895)">
    <path
       id="circle1264"
       style="color:#000000;fill:#3470da;fill-opacity:1;fill-rule:evenodd;-inkscape-stroke:none"
       d="m 100.19707,40.691929 a 3.96875,3.96875 0 0 0 -3.968753,3.96875 3.96875,3.96875 0 0 0 3.968753,3.96875 3.96875,3.96875 0 0 0 2.76934,-1.12913 c 14.16345,4.740445 24.35045,18.099256 24.35045,33.873384 0,3.107921 -0.39965,6.120156 -1.14308,8.99325 l -8.94985,-2.398303 c 0.5433,-2.109218 0.83355,-4.318509 0.83355,-6.594947 0,-0.261835 -0.005,-0.522889 -0.0129,-0.782898 a 3.96875,3.96875 0 0 0 1.12292,-1.236617 3.96875,3.96875 0 0 0 -1.45262,-5.421374 3.96875,3.96875 0 0 0 -5.42137,1.452624 3.96875,3.96875 0 0 0 1.45262,5.421375 3.96875,3.96875 0 0 0 0.3359,0.170532 c 0.002,0.132034 0.007,0.263762 0.007,0.396358 0,9.076672 -5.34585,16.875171 -13.06742,20.432347 l -2.463937,-9.193756 c 3.757427,-2.338571 6.269387,-6.505605 6.269387,-11.238591 0,-3.585724 -1.44183,-6.847158 -3.77445,-9.234578 l 7.91786,-7.917863 c 0.77736,-0.777353 0.77736,-2.029194 0,-2.806547 -0.10724,-0.107248 -0.22393,-0.198814 -0.34674,-0.276469 -4.60495,-3.880709 -10.546273,-6.223393 -17.025322,-6.223393 -1.082877,0 -2.150673,0.06619 -3.199804,0.19327 l -2.968812,-11.07891 c -0.28453,-1.061884 -1.368459,-1.687546 -2.430342,-1.403015 v -5.17e-4 c -17.769988,3.936066 -31.088542,19.805321 -31.088542,38.748022 0,2.763686 0.290034,5.459407 0.829924,8.064624 a 3.96875,3.96875 0 0 0 -0.672827,4.829163 3.96875,3.96875 0 0 0 5.421374,1.452625 3.96875,3.96875 0 0 0 1.452625,-5.421375 3.96875,3.96875 0 0 0 -2.354379,-1.831413 c -0.461119,-2.292809 -0.707967,-4.663535 -0.707967,-7.093624 0,-16.459481 11.091875,-30.289131 26.219072,-34.441825 l 2.398303,8.951392 c -2.41942,0.675142 -4.699348,1.687621 -6.787699,2.981213 a 3.96875,3.96875 0 0 0 -1.644345,-0.357084 3.96875,3.96875 0 0 0 -3.96875,3.96875 3.96875,3.96875 0 0 0 3.96875,3.96875 3.96875,3.96875 0 0 0 3.96875,-3.96875 3.96875,3.96875 0 0 0 -0.01964,-0.391191 c 3.381308,-2.031871 7.342524,-3.201355 11.584306,-3.201355 4.841402,0 9.319225,1.521493 12.984225,4.112411 l -6.728793,6.728788 c -1.864671,-1.007288 -3.995594,-1.579748 -6.255432,-1.579748 -6.045565,0 -11.169127,4.09715 -12.735657,9.655224 L 68.057943,74.905344 C 66.99622,74.620857 65.91233,75.246769 65.6276,76.30836 c -1.02e-4,5.28e-4 -4.14e-4,0.001 -5.16e-4,0.0016 -0.02812,0.105278 -0.04667,0.21084 -0.05736,0.315743 -0.280609,1.540934 -0.430465,3.127372 -0.430465,4.74803 0,5.960731 1.985124,11.464072 5.324223,15.89257 l -8.121985,8.121987 c -0.777353,0.77735 -0.777353,2.02868 0,2.80603 0.04983,0.0498 0.101549,0.0966 0.155029,0.14004 7.251997,7.82293 17.610102,12.72687 29.101583,12.72687 10.130661,0 19.382151,-3.81012 26.399941,-10.07225 a 3.96875,3.96875 0 0 0 4.53202,-1.8278 3.96875,3.96875 0 0 0 -1.45262,-5.42137 3.96875,3.96875 0 0 0 -5.42138,1.45262 3.96875,3.96875 0 0 0 -0.40721,2.96003 c -6.29639,5.56373 -14.573,8.94002 -23.650751,8.94002 -9.780752,0 -18.632424,-3.9179 -25.078056,-10.27017 l 6.568075,-6.56808 c 1.765967,1.73141 3.771183,3.21839 5.96346,4.40439 a 3.96875,3.96875 0 0 0 0.51108,1.60042 3.96875,3.96875 0 0 0 5.421375,1.45262 3.96875,3.96875 0 0 0 1.452624,-5.42137 3.96875,3.96875 0 0 0 -5.421374,-1.45263 3.96875,3.96875 0 0 0 -0.327112,0.21394 C 73.776171,97.21965 69.108008,89.855077 69.108008,81.373683 c 0,-0.692429 0.03387,-1.376924 0.09508,-2.053104 l 9.1736,2.458248 c 0.215852,7.096607 6.074352,12.82299 13.221415,12.82299 1.129053,0 2.22609,-0.142709 3.273702,-0.411345 l 2.894914,10.803478 c 0.284531,1.06188 1.368459,1.68754 2.430351,1.40301 0.10512,-0.0282 0.20567,-0.0645 0.30179,-0.10748 6.9469,-2.48934 12.55975,-7.805116 15.44402,-14.555189 l 11.08096,2.968811 c 1.06189,0.284531 2.14581,-0.341131 2.43035,-1.403015 l 0.002,10e-4 c 1.18799,-3.766066 1.82986,-7.772282 1.82986,-11.927438 0,-17.548619 -11.43057,-32.458021 -27.24122,-37.687105 a 3.96875,3.96875 0 0 0 -3.84731,-2.994649 z m -8.598962,31.421855 c 5.137885,0 9.259902,4.122015 9.259902,9.259899 0,5.137885 -4.122017,9.259384 -9.259902,9.259384 -5.137881,0 -9.259383,-4.121499 -9.259383,-9.259384 0,-5.137884 4.121502,-9.259899 9.259383,-9.259899 z" />
  </g>
</svg>
